<?xml version="1.0" standalone="no"?>
<!DOCTYPE svg PUBLIC "-//W3C//DTD SVG 20010904//EN"
 "http://www.w3.org/TR/2001/REC-SVG-20010904/DTD/svg10.dtd">
<svg version="1.0" xmlns="http://www.w3.org/2000/svg"
 width="2000.000000pt" height="2070.000000pt" viewBox="0 0 2000.000000 2070.000000"
 preserveAspectRatio="xMidYMid meet">
<metadata>
Created by potrace 1.11, written by Peter Selinger 2001-2013
</metadata>
<g transform="translate(0.000000,2070.000000) scale(0.100000,-0.100000)"
fill="#000000" stroke="none">
<path d="M0 10350 l0 -10350 10000 0 10000 0 0 10350 0 10350 -10000 0 -10000
0 0 -10350z m19979 10326 c8 -10 10 -2712 9 -10337 l-3 -10324 -9974 -3
c-7366 -1 -9977 1 -9987 9 -12 10 -14 1669 -14 10334 0 5677 3 10325 7 10328
3 4 4494 7 9978 7 8371 0 9974 -2 9984 -14z"/>
<path d="M10127 19748 c-199 -289 -578 -883 -807 -1263 -305 -507 -595 -1042
-760 -1403 l-47 -102 -67 116 c-443 767 -1075 1425 -1771 1843 -523 314 -1024
475 -1590 512 -200 12 -310 6 -420 -26 -120 -35 -175 -62 -175 -86 0 -11 33
-64 73 -117 338 -448 573 -900 672 -1292 65 -258 61 -471 -16 -828 -11 -53
-24 -101 -28 -105 -4 -4 -24 16 -43 45 -67 101 -245 334 -358 468 -144 171
-508 536 -666 667 -747 618 -1536 969 -2374 1054 -198 21 -534 18 -655 -5
-113 -21 -248 -66 -315 -104 -59 -34 -120 -81 -120 -94 0 -5 38 -60 83 -121
584 -781 958 -1762 1076 -2822 31 -278 41 -454 51 -930 5 -242 14 -498 20
-570 78 -1002 291 -1833 665 -2590 235 -477 464 -810 775 -1129 324 -333 583
-511 998 -686 21 -9 10 -19 -140 -119 -511 -342 -865 -765 -977 -1171 -32
-113 -46 -277 -31 -353 15 -78 78 -237 97 -244 7 -3 38 11 67 30 198 131 424
191 637 168 384 -42 783 -216 1229 -536 366 -262 706 -423 1103 -519 554 -135
1044 -109 1410 76 l79 39 71 -49 c101 -69 271 -175 637 -395 173 -104 345
-213 382 -243 263 -212 492 -626 612 -1109 178 -713 123 -1652 -141 -2429
-132 -389 -287 -693 -506 -989 l-50 -69 -296 5 c-284 4 -308 6 -591 47 -263
38 -316 43 -490 44 -132 1 -218 -4 -265 -13 -260 -52 -469 -192 -546 -365 -28
-65 -36 -173 -16 -213 87 -167 534 -264 1160 -250 438 9 711 71 1027 233 626
321 1004 993 1159 2064 57 389 73 662 80 1360 l6 605 35 -3 c19 -2 68 -19 108
-38 55 -27 79 -46 100 -76 26 -40 27 -47 30 -202 7 -293 -24 -921 -63 -1286
-99 -933 -292 -1586 -572 -1941 -35 -43 -63 -87 -63 -96 0 -48 130 -257 221
-357 l54 -58 534 1 c462 2 545 0 617 -15 l84 -16 55 42 c94 72 149 166 160
275 9 85 -6 134 -59 189 -73 74 -59 74 -612 16 -267 -28 -489 -48 -494 -45 -5
3 16 42 47 88 242 360 431 1017 527 1837 53 453 74 793 86 1405 10 462 16 535
54 683 52 199 161 415 294 582 58 72 211 227 287 290 207 170 507 315 777 375
l76 16 49 -24 c131 -67 341 -123 564 -153 191 -24 601 -30 773 -10 575 67
1111 319 1596 751 104 93 287 230 400 300 330 204 740 324 925 271 89 -27 240
-106 388 -206 74 -49 139 -90 145 -90 11 0 48 106 82 235 78 297 -12 668 -246
1017 -125 185 -328 402 -525 562 l-86 69 237 236 c233 233 372 390 534 606
533 707 901 1557 1046 2416 88 525 93 987 21 2089 -45 678 -55 1100 -32 1295
90 756 449 1512 1001 2107 50 53 90 101 90 106 0 34 -146 121 -270 161 -314
103 -926 69 -1455 -80 -871 -246 -1714 -846 -2323 -1654 -116 -155 -235 -330
-319 -474 -38 -64 -58 -89 -63 -80 -10 18 -36 157 -55 284 -37 262 -47 665
-20 872 52 396 196 828 418 1255 39 75 69 140 66 143 -11 10 -140 44 -268 71
-184 38 -330 42 -461 15 -549 -116 -1068 -358 -1570 -735 -450 -337 -888 -790
-1231 -1275 -51 -72 -96 -128 -99 -124 -4 5 -46 96 -94 203 -218 482 -535
1095 -767 1483 -203 337 -510 777 -544 777 -8 0 -52 -55 -98 -122z m-4600
-894 c334 -100 692 -306 1048 -603 123 -102 489 -470 608 -611 298 -354 578
-754 828 -1183 l81 -139 -95 -226 c-437 -1039 -686 -1898 -772 -2662 -84 -747
8 -1631 240 -2308 147 -430 285 -692 574 -1093 8 -11 11 -22 9 -25 -9 -8 -251
82 -388 145 -568 259 -1011 651 -1405 1241 -493 740 -764 1562 -835 2530 -13
185 -13 788 0 1024 27 467 79 814 160 1078 66 214 154 615 189 869 43 306 49
556 20 839 -45 449 -189 852 -394 1103 -64 79 -63 79 132 21z m8985 -50 c3 -3
-14 -48 -38 -99 -128 -275 -211 -606 -234 -945 -21 -293 9 -572 120 -1115 84
-414 241 -1063 310 -1285 156 -500 234 -1074 261 -1912 15 -502 -5 -799 -76
-1137 -136 -640 -447 -1205 -929 -1687 -248 -248 -465 -409 -742 -551 -292
-150 -637 -257 -936 -290 -94 -11 -93 -13 -6 123 36 54 103 164 150 244 409
697 644 1293 730 1850 35 229 29 755 -13 1180 -120 1215 -498 2429 -1119 3591
l-41 77 52 88 c473 804 1160 1434 1865 1712 164 65 313 107 484 137 154 27
155 27 162 19z m-4143 -237 c1222 -1881 1952 -3737 2115 -5377 53 -533 47
-1012 -18 -1385 -64 -365 -198 -735 -376 -1036 -508 -858 -1233 -1279 -2066
-1198 -817 79 -1517 605 -1955 1468 -356 699 -438 1522 -254 2531 254 1388
1002 3075 2135 4815 218 335 264 405 270 405 3 0 70 -100 149 -223z m8046 132
c4 -5 -15 -33 -42 -62 -360 -384 -646 -964 -757 -1534 -52 -268 -60 -363 -60
-728 0 -340 4 -422 49 -1125 64 -996 58 -1360 -31 -1874 -165 -949 -692 -1955
-1375 -2621 -369 -360 -751 -574 -1157 -647 -141 -25 -396 -30 -512 -9 -88 15
-271 57 -318 72 l-33 11 158 162 c287 294 480 570 668 959 240 497 374 997
437 1632 16 170 16 790 0 1000 -51 636 -165 1319 -332 1985 l-49 195 85 171
c243 492 535 909 889 1273 666 685 1424 1076 2210 1140 147 12 163 12 170 0z
m-16534 -124 c360 -50 692 -153 1047 -325 768 -372 1456 -980 2010 -1775 l42
-60 -15 -85 c-52 -295 -129 -866 -162 -1205 -32 -332 -22 -931 23 -1380 126
-1262 543 -2363 1154 -3044 51 -56 90 -104 88 -106 -8 -8 -160 -48 -247 -66
-127 -26 -375 -35 -511 -20 -242 28 -449 90 -686 206 -417 205 -789 534 -1152
1019 -527 704 -854 1487 -946 2266 -9 74 -18 149 -21 165 -2 17 -9 233 -14
480 -12 507 -23 732 -52 1050 -108 1189 -417 2198 -855 2798 -35 48 -61 93
-58 99 9 14 196 5 355 -17z m4814 -8577 c155 -88 371 -191 545 -260 41 -16 89
-36 105 -43 17 -7 71 -25 120 -41 50 -15 94 -31 100 -36 5 -4 18 -8 30 -8 12
0 30 -7 41 -15 10 -8 35 -15 54 -15 45 -1 176 -33 179 -43 5 -13 -61 -97 -76
-97 -7 0 -13 -7 -13 -15 0 -8 -4 -15 -10 -15 -5 0 -10 -7 -10 -15 0 -8 -4 -15
-10 -15 -5 0 -10 -7 -10 -15 0 -21 -113 -194 -127 -194 -7 -1 -13 -10 -13 -21
0 -23 -48 -123 -61 -128 -5 -2 -9 -14 -9 -27 0 -12 -7 -42 -16 -66 -29 -80
-18 -424 22 -699 23 -158 25 -170 40 -198 7 -14 11 -29 8 -33 -7 -12 -95 -39
-126 -39 -15 0 -28 -4 -28 -9 0 -11 -160 -41 -239 -46 -31 -1 -90 -6 -131 -10
-41 -3 -122 -1 -180 5 -58 6 -132 13 -165 16 -32 3 -64 9 -70 13 -5 5 -24 9
-41 9 -43 1 -213 42 -220 53 -3 5 -15 9 -28 9 -32 0 -136 37 -157 56 -10 9
-25 14 -33 11 -8 -3 -22 1 -33 8 -10 8 -25 15 -34 15 -24 0 -302 140 -401 200
-126 78 -148 94 -148 108 0 6 -8 12 -19 12 -15 0 -121 81 -260 200 -18 16 -42
32 -52 35 -10 3 -32 19 -49 35 -17 16 -53 39 -80 51 -28 12 -50 29 -50 36 0 7
-11 13 -23 13 -13 0 -44 13 -68 30 -24 16 -48 30 -53 30 -13 0 -218 80 -231
90 -5 4 -32 10 -59 14 -27 3 -54 10 -60 15 -13 11 -76 20 -176 26 -41 3 -86 7
-100 10 -37 6 -300 -17 -300 -27 0 -4 -11 -8 -25 -8 -15 0 -25 6 -25 14 0 26
81 176 96 176 8 0 14 10 14 25 0 16 16 41 45 71 25 25 45 50 45 57 0 16 61 77
77 77 7 0 13 6 13 14 0 20 190 196 211 196 9 0 19 7 23 15 3 8 12 15 21 15 8
0 15 6 15 13 0 16 179 137 203 137 9 0 17 4 17 10 0 12 89 70 108 70 7 0 22 9
34 20 12 11 32 20 45 20 13 0 23 4 23 10 0 5 19 19 42 31 38 20 47 21 98 10
30 -7 71 -14 90 -17 19 -3 42 -8 50 -12 8 -3 26 -7 40 -8 14 -1 54 -9 90 -17
191 -42 292 -44 535 -13 136 17 390 64 420 77 34 15 252 79 269 79 9 0 16 5
16 10 0 22 50 7 135 -42z m9230 -284 c39 -13 75 -31 81 -39 6 -8 18 -15 26
-15 48 0 298 -214 298 -255 0 -9 7 -18 15 -21 8 -4 15 -11 15 -18 0 -6 9 -19
20 -29 11 -9 23 -31 27 -47 3 -17 9 -30 14 -30 5 0 26 -35 45 -77 20 -43 41
-86 45 -95 5 -10 9 -22 9 -27 0 -5 -60 -8 -132 -8 -133 1 -318 -17 -350 -34
-10 -5 -31 -9 -47 -9 -16 0 -31 -4 -33 -8 -4 -11 -129 -52 -156 -52 -12 0 -22
-4 -22 -10 0 -5 -11 -10 -24 -10 -13 0 -26 -4 -28 -9 -4 -12 -174 -91 -194
-91 -8 0 -14 -4 -14 -10 0 -5 -11 -10 -25 -10 -15 0 -25 -6 -25 -14 0 -15 -21
-26 -51 -26 -10 0 -19 -6 -19 -12 -1 -11 -210 -155 -242 -167 -5 -1 -20 -14
-33 -27 -13 -13 -31 -24 -38 -24 -8 0 -22 -11 -31 -25 -9 -14 -25 -25 -36 -25
-11 0 -20 -7 -20 -15 0 -9 -8 -19 -17 -22 -10 -4 -28 -20 -41 -35 -13 -15 -32
-28 -43 -28 -10 0 -19 -5 -19 -12 0 -19 -31 -48 -52 -48 -10 0 -18 -6 -18 -14
0 -17 -101 -96 -123 -96 -9 0 -21 -9 -27 -21 -24 -45 -412 -265 -445 -253 -7
3 -22 -3 -33 -14 -24 -24 -216 -86 -352 -113 -161 -32 -576 -32 -812 1 -124
17 -252 42 -263 51 -6 4 -30 11 -53 15 -24 4 -41 9 -39 13 31 57 98 207 108
241 7 25 16 47 19 50 3 3 12 46 19 95 7 50 17 122 23 160 6 39 10 152 9 252
-1 203 -22 346 -67 440 -13 28 -24 57 -24 63 0 6 -18 35 -40 65 -22 30 -40 60
-40 68 0 15 77 57 104 57 9 0 16 4 16 9 0 10 162 71 189 71 10 0 31 6 47 14
33 16 181 42 295 52 64 5 92 2 175 -19 220 -58 487 -82 817 -73 122 3 234 6
249 6 15 0 29 4 33 10 3 5 32 10 63 10 33 0 70 7 87 16 17 9 57 18 90 21 33 3
65 9 70 14 16 12 210 59 244 59 16 0 33 5 36 10 3 6 21 10 40 10 19 0 37 5 40
10 3 6 19 10 34 10 16 0 42 7 57 15 16 8 41 15 55 15 15 0 40 7 55 15 16 8 41
15 57 15 15 0 35 5 45 11 9 5 55 21 102 34 98 28 146 26 255 -11z m-7286 -433
c244 -84 361 -114 656 -173 169 -34 188 -37 265 -43 30 -3 96 -9 145 -15 237
-27 672 -40 840 -25 44 3 109 8 145 10 91 5 319 35 357 46 17 5 56 12 85 15
29 3 60 8 68 11 8 4 19 5 24 4 12 -3 108 21 121 30 14 10 162 49 185 49 11 0
28 5 38 10 24 14 340 120 358 120 7 0 23 -9 34 -20 11 -11 27 -20 35 -20 7 0
18 -6 22 -13 4 -7 20 -18 35 -24 31 -14 109 -109 139 -170 11 -24 25 -45 29
-48 5 -3 14 -22 20 -43 6 -20 16 -48 22 -62 23 -53 27 -66 32 -100 3 -19 8
-48 12 -65 12 -62 9 -294 -3 -307 -7 -6 -13 -25 -13 -40 0 -33 -28 -108 -41
-108 -5 0 -9 -9 -9 -20 0 -70 -168 -283 -304 -388 -74 -57 -204 -132 -229
-132 -10 0 -25 -7 -33 -15 -9 -8 -26 -15 -40 -15 -13 0 -24 -4 -24 -10 0 -5
-13 -10 -29 -10 -16 0 -31 -3 -33 -7 -4 -11 -75 -43 -93 -43 -8 0 -23 -8 -34
-17 -10 -10 -60 -40 -111 -68 -50 -27 -132 -80 -182 -117 -49 -38 -96 -68
-104 -68 -8 0 -14 -5 -14 -12 0 -17 -111 -128 -127 -128 -7 0 -13 -9 -13 -19
0 -11 -10 -28 -22 -38 -13 -10 -31 -34 -42 -53 -10 -19 -24 -39 -31 -45 -6 -5
-15 -22 -18 -37 -4 -15 -14 -33 -22 -42 -8 -8 -15 -22 -15 -32 0 -27 -79 -184
-96 -191 -7 -3 -14 -11 -14 -19 0 -8 -4 -14 -10 -14 -5 0 -10 -7 -10 -16 0
-32 -133 -194 -159 -194 -9 0 -21 -10 -26 -22 -6 -12 -37 -36 -70 -55 -51 -28
-70 -33 -126 -33 -36 0 -90 7 -120 16 -67 20 -169 71 -169 84 0 6 -8 10 -18
10 -43 0 -232 205 -232 251 0 10 -4 19 -9 19 -5 0 -31 32 -57 72 -27 40 -92
118 -146 174 -54 56 -98 106 -98 112 0 5 -11 13 -25 16 -13 3 -35 20 -47 36
-12 17 -25 30 -29 30 -8 0 -250 178 -293 215 -16 14 -35 25 -42 25 -8 0 -14 7
-14 15 0 8 -8 15 -17 15 -10 0 -47 19 -83 43 -36 24 -102 65 -147 92 -46 27
-83 55 -83 62 0 7 -8 13 -18 13 -24 0 -156 123 -220 203 -64 80 -138 210 -152
267 -7 25 -16 50 -22 57 -20 24 -38 121 -44 224 -5 110 16 303 36 323 6 6 10
22 10 37 0 15 7 34 15 43 8 8 15 26 15 40 0 14 5 26 10 26 6 0 10 10 10 23 0
28 67 144 121 208 43 52 121 114 154 122 11 2 22 5 24 6 2 0 56 -17 120 -38z
m-459 -7270 c-16 -41 -91 -108 -148 -134 -45 -21 -61 -22 -445 -25 l-397 -3
-25 25 c-28 28 -33 72 -11 102 14 18 34 19 438 25 347 5 434 9 487 23 35 9 71
20 80 26 25 14 36 -5 21 -39z"/>
<path d="M12166 2360 c-211 -24 -387 -82 -476 -156 -44 -37 -70 -97 -70 -162
0 -48 3 -55 41 -93 50 -50 123 -85 220 -105 60 -12 151 -15 528 -12 456 3 456
3 509 27 95 43 141 123 127 225 -8 66 -24 93 -84 149 -105 99 -223 129 -511
133 -113 1 -241 -2 -284 -6z"/>
<path d="M11990 1624 c-70 -19 -132 -55 -186 -109 -55 -56 -75 -96 -81 -164
-5 -51 -3 -58 21 -80 54 -51 98 -54 791 -58 437 -3 652 -1 676 6 49 15 115 87
129 142 15 56 8 124 -17 158 -32 43 -100 89 -155 106 -75 22 -1095 21 -1178
-1z"/>
<path d="M9903 1525 c-86 -19 -155 -59 -217 -125 -56 -61 -76 -109 -76 -182 0
-37 5 -49 33 -75 99 -95 330 -143 681 -143 361 0 609 42 779 132 101 54 146
131 133 223 -8 51 -77 123 -151 157 -50 23 -50 23 -585 25 -423 1 -548 -1
-597 -12z"/>
<path d="M8718 1414 c-42 -8 -132 -30 -200 -50 -68 -20 -168 -49 -223 -65
-285 -84 -391 -87 -625 -18 -143 42 -147 43 -295 42 -168 0 -256 -18 -361 -71
-80 -41 -115 -79 -121 -135 -5 -38 -1 -48 25 -79 30 -34 33 -34 149 -46 65 -7
190 -28 278 -48 521 -114 475 -107 665 -107 128 -1 220 5 340 22 91 12 238 26
328 31 229 14 332 44 442 131 71 56 102 115 103 194 1 54 -3 68 -27 100 -33
43 -104 91 -156 105 -49 14 -231 10 -322 -6z"/>
<path d="M9835 880 c-60 -15 -137 -35 -170 -44 -33 -9 -104 -21 -159 -26 -143
-14 -241 -63 -282 -142 -8 -15 -14 -54 -14 -87 0 -58 1 -60 45 -99 75 -66 212
-97 470 -108 274 -11 624 22 800 77 95 29 136 51 173 94 28 32 32 43 32 96 0
58 -1 61 -46 104 -46 45 -92 65 -154 65 -41 1 -103 14 -293 64 -174 46 -247
47 -402 6z"/>
<path d="M11800 885 c-379 -19 -470 -26 -545 -44 -122 -30 -240 -88 -293 -145
-39 -43 -42 -49 -42 -105 0 -57 2 -61 41 -94 76 -66 234 -100 546 -119 225
-13 587 -1 783 27 248 35 442 105 513 183 34 39 37 46 37 105 0 61 -1 64 -42
104 -90 86 -187 113 -398 112 -80 -1 -350 -12 -600 -24z"/>
<path d="M7077 640 c-103 -22 -231 -82 -261 -123 -15 -21 -21 -44 -21 -82 0
-49 3 -58 40 -95 22 -23 58 -52 80 -65 138 -82 534 -130 865 -105 294 21 490
81 582 177 44 45 58 79 58 137 0 70 -66 120 -207 157 -71 18 -112 19 -562 18
-434 0 -496 -2 -574 -19z"/>
</g>
</svg>
