<?xml version="1.0" encoding="UTF-8" standalone="no"?>
<!-- Created with Inkscape (http://www.inkscape.org/) -->
<svg
   xmlns:dc="http://purl.org/dc/elements/1.1/"
   xmlns:cc="http://creativecommons.org/ns#"
   xmlns:rdf="http://www.w3.org/1999/02/22-rdf-syntax-ns#"
   xmlns:svg="http://www.w3.org/2000/svg"
   xmlns="http://www.w3.org/2000/svg"
   xmlns:sodipodi="http://sodipodi.sourceforge.net/DTD/sodipodi-0.dtd"
   xmlns:inkscape="http://www.inkscape.org/namespaces/inkscape"
   width="900.57971"
   height="599.99994"
   id="svg2"
   sodipodi:version="0.32"
   inkscape:version="0.46"
   version="1.0"
   sodipodi:docbase="C:\Documents and Settings\Nicholas\Desktop"
   sodipodi:docname="INC-flag.svg"
   smiling="fake"
   inkscape:output_extension="org.inkscape.output.svg.inkscape">
  <defs
     id="defs4">
    <inkscape:perspective
       sodipodi:type="inkscape:persp3d"
       inkscape:vp_x="0 : 300 : 1"
       inkscape:vp_y="0 : 1000 : 0"
       inkscape:vp_z="900 : 300 : 1"
       inkscape:persp3d-origin="450 : 200 : 1"
       id="perspective38" />
    <inkscape:perspective
       id="perspective2418"
       inkscape:persp3d-origin="372.04724 : 350.78739 : 1"
       inkscape:vp_z="744.09448 : 526.18109 : 1"
       inkscape:vp_y="0 : 1000 : 0"
       inkscape:vp_x="0 : 526.18109 : 1"
       sodipodi:type="inkscape:persp3d" />
  </defs>
  <sodipodi:namedview
     id="base"
     pagecolor="#ffffff"
     bordercolor="#666666"
     borderopacity="1.0"
     inkscape:pageopacity="0.0"
     inkscape:pageshadow="2"
     inkscape:zoom="1.3083335"
     inkscape:cx="526.02872"
     inkscape:cy="300.44324"
     inkscape:document-units="px"
     inkscape:current-layer="layer4"
     inkscape:window-width="1680"
     inkscape:window-height="990"
     inkscape:window-x="0"
     inkscape:window-y="26"
     showgrid="false"
     showguides="true"
     inkscape:guide-bbox="true">
    <inkscape:grid
       type="xygrid"
       id="grid2530"
       visible="true"
       enabled="true" />
  </sodipodi:namedview>
  <metadata
     id="metadata7">
    <rdf:RDF>
      <cc:Work
         rdf:about="">
        <dc:format>image/svg+xml</dc:format>
        <dc:type
           rdf:resource="http://purl.org/dc/dcmitype/StillImage" />
        <dc:title>Flag of the Indian National Congress</dc:title>
        <dc:date>2006-06-03</dc:date>
        <dc:creator>
          <cc:Agent>
            <dc:title>Nicholas</dc:title>
          </cc:Agent>
        </dc:creator>
        <dc:subject>
          <rdf:Bag>
            <rdf:li>Flag</rdf:li>
            <rdf:li>INC</rdf:li>
            <rdf:li>Indian National Congress</rdf:li>
            <rdf:li>Congress Party</rdf:li>
            <rdf:li>hand</rdf:li>
          </rdf:Bag>
        </dc:subject>
        <dc:description>Flag of the Indian National Congress, a national political party in India.</dc:description>
        <cc:license
           rdf:resource="http://web.resource.org/cc/PublicDomain" />
      </cc:Work>
      <cc:License
         rdf:about="http://web.resource.org/cc/PublicDomain">
        <cc:permits
           rdf:resource="http://web.resource.org/cc/Reproduction" />
        <cc:permits
           rdf:resource="http://web.resource.org/cc/Distribution" />
        <cc:permits
           rdf:resource="http://web.resource.org/cc/DerivativeWorks" />
      </cc:License>
    </rdf:RDF>
  </metadata>
  <g
     inkscape:groupmode="layer"
     id="layer3"
     inkscape:label="Flag"
     style="display:inline">
    <rect
       style="opacity:1;fill:#138808;fill-opacity:1;stroke:#000000;stroke-width:1.15945995;stroke-miterlimit:4;stroke-dasharray:none;stroke-dashoffset:0;stroke-opacity:1"
       id="rect1407"
       width="898.84052"
       height="198.84045"
       x="0.57972908"
       y="400.57977" />
    <rect
       y="200"
       x="0.57972908"
       height="200"
       width="900"
       id="rect2284"
       style="opacity:1;fill:#ffffff;fill-opacity:1;stroke:none;stroke-width:1.15945995;stroke-miterlimit:4;stroke-dasharray:none;stroke-dashoffset:0;stroke-opacity:1" />
    <rect
       style="opacity:1;fill:#ff9933;fill-opacity:1;stroke:none;stroke-width:1.15945995;stroke-miterlimit:4;stroke-dasharray:none;stroke-dashoffset:0;stroke-opacity:1"
       id="rect2286"
       width="900"
       height="200"
       x="0"
       y="7.1942452e-14" />
  </g>
  <g
     inkscape:groupmode="layer"
     id="layer4"
     inkscape:label="hand"
     style="display:inline">
    <g
       id="g2546"
       transform="translate(-22.929934,-0.7643312)">
      <path
         id="path2426"
         d="M 487.01371,78.849394 C 467.09226,78.476353 462.24288,110.97015 439.16008,102.44489 C 424.97032,109.54312 417.87209,125.54555 403.94911,132.75053 L 402.56285,132.75053 C 400.6748,132.75053 398.97472,133.66346 398.01591,135.11558 C 397.31865,135.31487 396.6402,135.51039 395.90881,135.66559 C 378.57741,152.84443 381.23789,179.47193 376.66754,201.66699 C 373.32275,229.82351 372.1481,258.24938 372.50876,286.58877 C 360.43485,310.89401 361.18272,339.32276 361.8623,365.79045 C 363.28298,396.87534 372.74127,426.74276 383.04433,455.82735 C 389.78298,473.37951 374.60061,509.75247 401.56474,511.76353 C 446.75201,511.49489 491.95195,511.85583 537.14083,511.54353 C 554.86299,509.90982 541.99968,477.93773 553.11053,466.55258 C 569.63306,441.32651 595.1346,421.76042 604.79025,392.24601 C 617.85238,358.15391 614.84963,320.90863 621.53625,285.48875 C 621.27519,268.55503 637.80325,242.79921 616.10211,233.40266 C 595.91408,225.79023 575.84408,241.11624 568.30392,259.1432 C 564.17721,268.13113 558.44689,277.34963 558.48921,261.50825 C 554.38626,212.37742 554.02191,162.6978 544.40482,114.16013 C 542.4972,96.562144 520.28323,93.639092 509.97016,97.274783 C 506.39695,88.407804 499.38483,79.559217 489.00993,79.014397 C 488.33486,78.931517 487.65634,78.861433 487.01371,78.849394 z M 385.48414,169.87631 C 387.22085,170.67871 383.30006,171.6344 385.48414,169.87631 z"
         style="fill:#ffffff;display:inline" />
      <path
         id="path2424"
         d="M 538.15439,520.34459 C 537.50371,519.69388 536.97132,517.82499 536.97132,516.19148 C 536.97132,514.55798 535.71031,508.9752 534.16907,503.7853 C 531.4668,494.68577 531.17815,494.39056 526.078,495.51074 C 522.09353,496.38589 520.78918,496.01943 520.78918,494.02484 C 520.78918,490.61321 517.31334,489.32656 511.23564,490.48838 C 503.47778,491.9714 505.6455,489.3326 515.91659,484.79023 C 526.05779,480.30532 530.78701,476.09764 528.97745,473.16973 C 528.36619,472.1807 526.47605,471.81701 524.77712,472.36158 C 522.15398,473.20237 522.09488,473.0591 524.38521,471.41158 C 525.86857,470.34451 528.13249,469.45908 529.41613,469.44394 C 536.87949,469.35591 568.92861,442.07396 583.37766,423.50896 C 588.12484,417.40952 602.16721,388.91419 605.05736,379.51566 C 606.12171,376.05448 607.85232,363.10877 608.90313,350.74741 C 610.76669,328.82554 611.75236,320.93258 616.08838,293.21092 C 621.14345,260.89204 621.32566,255.56522 617.65958,247.27743 C 614.13665,239.31329 612.25151,238.07251 602.29178,237.16259 C 595.06746,236.50258 583.45987,245.38873 578.27781,255.54644 C 576.28611,259.45045 573.81614,262.64466 572.78897,262.64466 C 571.7618,262.64466 571.34759,263.33429 571.86853,264.17718 C 572.38945,265.02005 571.22354,270.06555 569.27762,275.38939 C 564.84757,287.50947 564.85449,291.86057 569.3295,308.00918 C 572.42956,319.19614 572.57127,321.31208 570.36792,323.51543 C 567.03962,326.84373 562.14353,324.89238 562.14353,320.23757 C 562.14353,318.22872 561.3756,316.58512 560.43702,316.58512 C 557.96458,316.58512 550.76191,326.98484 546.73902,336.36329 C 544.83015,340.81338 541.06781,348.90445 538.37824,354.34344 L 533.48815,364.23253 L 533.43171,356.44113 C 533.35446,345.77563 530.222,347.2605 523.29939,361.24412 C 517.79938,372.35407 513.59712,378.27868 513.59712,374.92293 C 513.59712,373.43526 519.70404,356.01542 523.49066,346.70188 C 524.21571,344.91853 523.97076,343.55535 522.92527,343.55535 C 520.37234,343.55535 510.04961,349.20419 505.78895,352.93276 C 503.85047,354.62915 501.57785,355.59278 500.73872,355.07416 C 499.89956,354.55554 499.21299,354.91573 499.21299,355.87458 C 499.21299,356.83344 495.31946,361.53355 490.56069,366.31929 C 485.80194,371.10503 480.34046,377.36626 478.42409,380.23312 C 469.91124,392.9683 468.49136,395.26759 464.23381,403.2121 C 461.75398,407.83944 458.88734,412.14315 457.86349,412.77592 C 456.83965,413.4087 456.46746,414.67961 457.03642,415.60019 C 457.60537,416.52076 457.21401,417.27396 456.16674,417.27396 C 455.11947,417.27396 454.26261,418.48763 454.26261,419.97099 C 454.26261,421.45435 453.4535,422.66801 452.46459,422.66801 C 449.58138,422.66801 450.36694,418.79325 455.16915,409.32767 C 457.63727,404.46276 459.65665,399.83579 459.65665,399.04552 C 459.65665,395.24673 453.32911,400.85661 445.94979,411.19781 C 441.44804,417.50641 437.47337,422.66801 437.11716,422.66801 C 436.76096,422.66801 437.30132,420.2819 438.31797,417.36554 C 440.10318,412.2445 453.98798,396.66497 463.27575,389.36154 C 465.7607,387.40749 471.01989,381.82107 474.96285,376.9473 C 491.56792,356.4222 517.58337,337.13475 533.32728,333.6768 C 536.3204,333.01941 538.76933,331.65015 538.76933,330.63402 C 538.76933,329.61787 539.88243,329.21363 541.24288,329.73568 C 542.60333,330.25773 543.65767,329.73748 543.58585,328.57954 C 543.51404,327.4216 545.3526,322.44575 547.67154,317.5221 C 550.90331,310.66028 552.03149,304.71924 552.50322,292.07833 C 553.18994,273.67669 550.84013,265.32807 542.9039,257.97302 C 538.76929,254.1412 536.57712,253.65458 523.4497,253.65458 C 514.8951,253.65458 505.43109,254.79211 501.01101,256.3516 C 491.66034,259.65071 492.62154,259.74156 491.49996,255.4526 C 490.74103,252.55046 489.04744,251.85657 482.72305,251.85657 C 473.11541,251.85657 463.24274,256.83137 452.46459,267.10372 C 438.17738,280.72045 430.01495,282.1323 442.57551,268.81422 C 446.03669,265.14431 448.86856,261.44572 448.86856,260.59514 C 448.86856,255.72661 429.70774,261.0121 420.62857,268.38509 C 419.43577,269.35375 417.413,269.54237 416.13353,268.80423 C 414.85408,268.06611 414.38806,268.10527 415.09793,268.89127 C 416.33045,270.256 397.999,282.42283 394.71027,282.42283 C 391.87518,282.42283 393.04653,279.08924 396.80715,276.4552 C 399.85015,274.32379 400.0151,273.69967 397.76373,272.83574 C 396.26748,272.26156 394.56504,272.56555 393.98056,273.51127 C 392.62623,275.70264 389.53405,275.75144 389.53405,273.58146 C 389.53405,272.67435 393.23457,270.51892 397.75742,268.79162 C 402.28027,267.06432 407.94402,264.1068 410.34353,262.21936 L 414.70627,258.78763 L 414.70627,200.59968 C 414.70627,165.35514 413.98232,140.50756 412.87021,137.58249 C 411.25728,133.34018 410.3429,132.89151 405.34661,133.89077 C 402.21848,134.51639 398.26489,136.29001 396.56086,137.83215 C 390.04661,143.72746 383.16462,166.09882 379.73686,192.52206 C 377.38644,210.6406 376.41381,280.08248 378.49246,281.36714 C 381.68383,283.33953 380.93375,287.53448 376.27292,293.78039 C 371.20688,300.5693 368.71776,310.90868 366.08615,336.09452 C 361.17858,383.06235 376.18019,443.59137 398.07463,465.16285 C 406.10296,473.07277 407.63253,475.93057 402.85692,474.09798 C 398.52039,472.43389 396.67911,474.45274 398.40154,478.98304 C 399.42589,481.67731 399.14613,484.11339 397.56385,486.27728 C 396.25721,488.06422 394.68177,492.89033 394.06288,497.00198 C 391.85813,511.6491 391.01639,514.3668 388.68454,514.3668 C 384.69446,514.3668 383.636,508.97165 382.86417,484.69954 C 382.16999,462.86966 381.65189,460.05069 375.02227,442.03287 C 366.25687,418.21048 362.72841,402.58168 360.0961,375.91963 C 357.82587,352.92495 359.19752,323.26691 363.25604,307.59504 C 364.66457,302.15605 366.32241,295.44783 366.94016,292.68788 C 367.55788,289.92794 368.7851,288.1159 369.66729,288.66113 C 370.58727,289.2297 370.9172,281.88022 370.44096,271.4267 C 368.8974,237.54444 377.82133,160.42515 385.11482,144.61746 C 388.84827,136.52567 398.40895,128.79651 408.00969,126.10846 C 414.28742,124.35081 416.69789,122.64016 417.95778,119.04855 C 418.87231,116.44146 422.50689,111.07196 426.03461,107.11633 C 432.3279,100.05967 432.69432,99.918277 445.49633,99.606879 C 458.33844,99.294492 458.59252,99.195349 461.62505,93.313825 C 467.08816,82.718192 477.76567,75.651057 488.31116,75.651057 C 493.20205,75.651057 496.0133,76.638311 497.27096,78.797584 C 498.27894,80.528173 499.12924,81.135004 499.16051,80.146095 C 499.26143,76.955319 508.20307,88.683594 508.20307,92.00674 C 508.20307,96.836371 511.09316,97.684639 517.05105,94.603685 C 524.23831,90.887026 528.37973,91.113791 533.99603,95.531569 C 542.68095,102.36313 546.98513,115.6861 549.64662,143.97564 C 550.71653,155.34809 552.29202,171.93478 553.1477,180.83496 C 554.00338,189.73513 555.59198,212.79468 556.67792,232.0784 C 559.30628,278.75196 559.37094,278.98635 565.75332,264.97767 C 568.54781,258.84403 572.51979,252.01634 574.57994,249.80501 C 576.64008,247.59371 578.32567,245.11009 578.32567,244.28586 C 578.32567,243.46165 582.12506,240.37778 586.76875,237.43283 C 593.97621,232.86201 596.97889,232.0784 607.28611,232.0784 C 618.56155,232.0784 619.66832,232.44438 624.01524,237.61039 C 629.12034,243.67748 629.62319,248.24649 626.7929,262.84875 C 622.58317,284.56779 619.91884,302.02391 618.8655,314.7871 C 616.00026,349.50506 613.53335,368.90956 610.40793,381.31367 C 606.55032,396.62356 595.9281,418.89155 588.84188,426.52384 C 586.22007,429.34767 584.44059,431.65809 584.88749,431.65809 C 585.33437,431.65809 583.19329,434.28769 580.12955,437.50164 C 577.0658,440.71559 573.20936,445.57023 571.55968,448.28973 C 569.91,451.00923 567.52105,453.23427 566.2509,453.23427 C 564.98076,453.23427 563.94155,454.4456 563.94155,455.92612 C 563.94155,457.40662 561.07071,461.79563 557.56192,465.67945 C 550.30448,473.71255 547.75941,480.8919 547.75941,493.33106 C 547.75941,508.45068 542.12026,524.31045 538.15439,520.34459 z M 434.82083,253.65458 C 438.29004,249.70098 441.15783,248.25318 445.5598,248.23301 C 448.86299,248.21787 452.54861,247.5808 453.75008,246.81732 C 458.09474,244.05651 460.21206,226.61923 458.7055,206.00717 C 457.9104,195.12918 457.47803,175.52139 457.74466,162.4343 C 458.42848,128.8692 456.7662,114.69581 451.47635,108.98797 C 445.94387,103.01831 436.38084,102.78043 430.44579,108.46484 C 421.81357,116.73249 420.99765,123.85367 421.02083,190.72404 C 421.03266,224.84138 421.61408,254.17151 422.31292,255.9021 C 424.22769,260.64397 429.5226,259.69255 434.82083,253.65458 z M 436.62077,216.3664 C 436.95185,214.64718 438.83168,213.04322 440.79813,212.80209 C 442.7646,212.56094 443.36214,212.82135 442.126,213.38076 C 438.73522,214.9153 439.42763,217.75442 442.87045,216.43327 C 444.88223,215.66129 445.43653,215.97429 444.56237,217.38872 C 442.43861,220.82503 435.92362,219.98637 436.62077,216.3664 z M 435.38345,164.15799 C 436.37235,163.16908 439.20423,161.77353 441.6765,161.05679 C 444.6732,160.18799 445.57221,160.35294 444.37352,161.55162 C 443.38461,162.54053 440.55274,163.93606 438.08047,164.65282 C 435.08377,165.5216 434.18476,165.35665 435.38345,164.15799 z M 437.07561,157.40356 C 438.99521,155.95167 441.82708,154.79239 443.36867,154.82744 C 445.16522,154.86829 444.55769,155.81372 441.6765,157.46076 C 435.79332,160.82387 432.60592,160.78426 437.07561,157.40356 z M 497.56089,243.56948 C 499.12449,242.18961 500.77162,241.42842 501.22114,241.87794 C 503.85789,244.51471 505.04876,209.61673 502.81255,195.24172 C 501.08579,184.14167 500.9861,170.8194 502.38169,137.66517 C 504.28208,92.518868 504.07141,90.53564 496.68322,84.018607 C 492.0531,79.934415 477.73376,80.691289 473.16325,85.261791 C 471.52679,86.898254 469.30173,88.237165 468.21862,88.237165 C 467.13553,88.237165 466.79163,88.77941 467.45436,89.44214 C 468.11711,90.104889 467.37791,92.602854 465.81171,94.993171 C 462.03602,100.7556 460.47946,145.91058 462.30732,196.65271 L 463.65436,234.04665 L 468.84757,235.08529 C 474.6687,236.2495 475.30694,237.77931 471.34375,241.06847 C 469.86039,242.29956 468.64673,244.50351 468.64673,245.96616 C 468.64673,248.18585 470.80183,248.41495 481.68234,247.35191 C 488.85193,246.65144 495.99728,244.94935 497.56089,243.56948 z M 479.43482,205.31776 C 479.43482,204.44414 481.64448,203.30695 484.34517,202.79069 C 488.93814,201.91268 489.03214,202.01535 485.79953,204.37909 C 481.84828,207.26832 479.43482,207.62425 479.43482,205.31776 z M 480.33383,199.71412 C 480.94501,198.72521 482.81326,197.92849 484.48548,197.94363 C 487.10568,197.96737 487.15315,198.21206 484.82887,199.71412 C 481.30769,201.98967 478.92746,201.98967 480.33383,199.71412 z M 481.23284,154.76373 C 482.7162,153.8051 485.54807,153.02077 487.52589,153.02077 C 490.50366,153.02077 490.65821,153.32045 488.4249,154.76373 C 486.94154,155.72235 484.10966,156.50668 482.13185,156.50668 C 479.15408,156.50668 478.99952,156.20702 481.23284,154.76373 z M 479.26957,148.66979 C 480.40978,147.29593 483.53969,145.75188 486.22494,145.23857 L 491.10723,144.30525 L 486.86985,147.73648 C 481.76834,151.86744 476.03105,152.57197 479.26957,148.66979 z M 544.23384,242.5917 L 548.65842,241.96748 L 549.20485,216.79527 C 549.50539,202.95055 548.90442,185.55475 547.86934,178.13793 C 546.83427,170.72112 545.19912,154.0288 544.23569,141.04389 C 542.43791,116.81412 540.72201,110.1099 534.51674,103.07079 C 527.11853,94.678429 511.96651,99.451602 508.67435,111.21161 C 507.92069,113.90374 507.44668,132.28854 507.621,152.06671 C 507.7953,171.84488 508.03073,198.50244 508.14415,211.30573 C 508.35701,235.33327 509.67753,240.18615 515.49997,238.33817 C 517.99817,237.54528 518.4889,238.10569 517.75476,240.91307 C 517.05094,243.60448 517.87468,244.73565 521.0503,245.43846 C 530.03009,247.42581 536.14624,247.39244 537.94079,245.34633 C 538.96844,244.17462 541.80032,242.93503 544.23384,242.5917 z M 521.68818,199.71412 C 522.29937,198.72521 524.82218,197.9161 527.29445,197.9161 C 529.8333,197.9161 531.30589,198.69858 530.67826,199.71412 C 530.06708,200.70303 527.54427,201.51213 525.072,201.51213 C 522.53314,201.51213 521.06055,200.72966 521.68818,199.71412 z M 523.4862,194.32007 C 524.09738,193.33116 525.76335,192.52206 527.18835,192.52206 C 528.61335,192.52206 529.77925,193.33116 529.77925,194.32007 C 529.77925,195.30898 528.11328,196.11809 526.0771,196.11809 C 524.04092,196.11809 522.87502,195.30898 523.4862,194.32007 z M 520.78918,153.02897 C 520.78918,150.71913 527.96556,146.95664 529.48091,148.47201 C 530.13634,149.12744 529.10329,150.81121 527.18526,152.21372 C 523.12518,155.18251 520.78918,155.48026 520.78918,153.02897 z M 520.78918,144.87465 C 522.02026,143.39129 524.74893,142.20629 526.85288,142.24133 C 530.45622,142.30135 530.41735,142.4542 526.18322,144.87465 C 520.29492,148.2407 517.9956,148.2407 520.78918,144.87465 z M 412.89115,506.25514 C 411.74825,504.878 411.33637,502.10271 411.97587,500.08782 C 412.65777,497.93935 411.97566,494.76406 410.32641,492.40941 C 406.97622,487.62637 406.63859,482.00252 409.70162,482.00252 C 410.90469,482.00252 415.40217,483.3442 419.69601,484.98404 C 426.26129,487.49134 428.93799,487.63432 436.52493,485.88305 C 441.48701,484.73766 448.5193,483.82921 452.15226,483.86426 L 458.75765,483.92796 L 454.26261,486.49756 C 451.79034,487.91083 447.48801,489.09583 444.70186,489.13086 C 440.53713,489.18325 439.83096,489.80837 440.73146,492.6456 C 441.8798,496.26369 440.95875,496.79382 429.52494,499.09559 C 426.30277,499.74424 422.88654,501.73223 421.93332,503.51331 C 419.53896,507.98722 415.37624,509.24946 412.89115,506.25514 z M 426.19397,478.44297 C 422.24993,476.84934 419.55548,472.35861 421.42288,470.49121 C 422.01401,469.90006 424.37269,469.41641 426.6644,469.41641 C 428.9561,469.41641 435.84203,466.98909 441.96648,464.02237 C 459.71343,455.42562 470.49558,457.49334 459.83744,467.44951 C 453.2557,473.59779 439.69065,480.24856 434.05453,480.09053 C 431.8187,480.02785 428.28146,479.28646 426.19397,478.44297 z M 489.49839,473.63603 C 483.96343,470.17388 479.43482,466.95128 479.43482,466.4747 C 479.43482,465.9981 480.18803,466.07365 481.1086,466.64259 C 482.02918,467.21156 483.32495,466.79915 483.9881,465.72615 C 485.12538,463.88599 504.15906,464.73389 512.2486,466.9851 C 516.69375,468.22212 516.15199,472.43363 511.12393,475.72815 C 503.78579,480.53627 499.93419,480.16365 489.49839,473.63603 z M 448.08515,427.535 C 448.76036,425.76177 449.76573,424.76387 450.31933,425.31746 C 450.87292,425.87105 450.32048,427.32187 449.09168,428.54153 C 447.31592,430.30406 447.1094,430.09754 448.08515,427.535 z M 400.32214,413.67126 C 400.32214,411.41389 425.95706,385.68461 435.32591,378.53864 C 438.73326,375.93973 442.3852,374.34739 443.44136,375.00012 C 444.49751,375.65286 445.1393,375.24023 444.86758,374.08315 C 444.42989,372.21942 458.47394,360.82462 483.03085,343.1189 C 487.48094,339.91036 491.52648,336.85778 492.02093,336.3354 C 494.55212,333.66123 517.41673,319.8054 518.12675,320.5154 C 519.46541,321.85408 512.49997,328.5257 503.28758,334.72864 C 498.57428,337.90223 492.89746,342.13666 490.67242,344.1385 C 488.44737,346.14036 486.6145,347.03036 486.59936,346.11628 C 486.58422,345.20223 485.97739,345.26347 485.25084,346.25237 C 482.08431,350.56242 468.45166,359.82915 466.78913,358.80166 C 465.78398,358.18044 465.18393,358.44326 465.45565,359.38571 C 465.72738,360.32814 461.09507,364.81597 455.16161,369.35865 C 449.22816,373.90134 443.35193,378.49104 442.10331,379.55797 C 440.8547,380.62491 439.01416,380.99172 438.01322,380.37311 C 437.0123,379.75451 436.41569,380.01303 436.6874,380.9476 C 437.15625,382.56015 407.99741,411.17492 402.78568,414.21678 C 401.31952,415.07251 400.32214,414.85164 400.32214,413.67126 z M 372.62962,354.62938 C 370.96106,351.92959 382.2235,345.09789 387.36502,345.69102 C 392.04601,346.23103 391.91734,346.44043 383.98203,351.19692 C 374.9839,356.59048 374.02149,356.88147 372.62962,354.62938 z M 410.20958,338.16397 C 413.54563,332.76613 458.75124,307.88832 461.04878,310.18586 C 461.57091,310.70798 462.88722,310.06541 463.9739,308.75793 C 465.94981,306.38054 474.89465,302.67835 501.91001,293.05652 C 510.5297,289.98652 514.85303,289.04445 512.69811,290.70575 C 509.22427,293.38385 458.74765,318.38314 456.81408,318.38314 C 454.48554,318.38314 424.28854,331.92624 421.56212,334.19334 C 419.89385,335.58056 417.6688,336.18399 416.61758,335.5343 C 415.56637,334.88462 414.70627,335.12334 414.70627,336.0648 C 414.70627,337.00628 413.45059,338.25842 411.91586,338.84736 C 410.33592,339.45363 409.59575,339.15719 410.20958,338.16397 z M 607.9582,269.72733 C 607.30225,267.66064 607.19018,265.54509 607.70912,265.02613 C 609.20923,263.52603 612.48796,266.20975 612.48796,268.93771 C 612.48796,273.13775 609.22136,273.70718 607.9582,269.72733 z M 394.02909,228.48237 C 394.64027,227.49346 396.50852,226.69674 398.18074,226.71188 C 400.80094,226.73561 400.84841,226.9803 398.52413,228.48237 C 395.00295,230.75792 392.62272,230.75792 394.02909,228.48237 z M 393.13008,223.08832 C 396.67239,220.7991 400.83794,220.7991 399.42314,223.08832 C 398.81196,224.07723 396.53916,224.87395 394.37248,224.85879 C 391.1698,224.83642 390.93744,224.5053 393.13008,223.08832 z M 398.52413,190.75804 C 400.9964,188.80551 404.07831,187.18997 405.37281,187.16798 C 409.38844,187.09978 406.01784,190.27058 399.87595,192.33904 L 394.02909,194.30812 L 398.52413,190.75804 z M 393.13008,188.26556 C 393.13008,187.21851 402.86871,181.73397 404.72789,181.73397 C 407.13508,181.73397 405.40848,184.99905 402.56966,185.8153 C 400.83907,186.3129 398.0072,187.30294 396.27661,188.01539 C 394.54602,188.72785 393.13008,188.84042 393.13008,188.26556 z"
         style="fill:#000000" />
    </g>
    <path
       style="fill:none;fill-rule:evenodd;stroke:#000000;stroke-width:1px;stroke-linecap:butt;stroke-linejoin:miter;stroke-opacity:1"
       d="M 454.77704,87.133734 C 453.75793,87.133734 453.75793,87.133734 454.77704,87.133734 z"
       id="path2400" />
    <path
       style="fill:none;fill-rule:evenodd;stroke:#000000;stroke-width:1px;stroke-linecap:butt;stroke-linejoin:miter;stroke-opacity:1"
       d="M 454.01271,87.515899 C 451.31328,88.305796 451.7121,91.350246 454.01271,87.515899 z"
       id="path3176" />
  </g>
</svg>
